<svg xmlns="http://www.w3.org/2000/svg" fill="none" viewBox="0 0 288 59" height="59" width="288">
<g clip-path="url(#clip0_8_2)">
<mask height="59" width="288" y="0" x="0" maskUnits="userSpaceOnUse" style="mask-type:luminance" id="mask0_8_2">
<path fill="white" d="M288 0H0V58.9H288V0Z"></path>
</mask>
<g mask="url(#mask0_8_2)">
<mask height="117" width="358" y="-30" x="-35" maskUnits="userSpaceOnUse" style="mask-type:luminance" id="mask1_8_2">
<path fill="white" d="M322.4 -29.2H-34.8V87H322.4V-29.2Z"></path>
</mask>
<g mask="url(#mask1_8_2)">
<path fill="#500C76" d="M68 47.6C65.7 47.6 63.5 47.2 61.2 46.4C59 45.6 56.9 44.3 55.1 42.6L59.5 37.2C60.7 38.2 62.1 39 63.7 39.5C65.2 40 66.7 40.3 68.2 40.3C69.7 40.3 70.8 40.1 71.5 39.6C72.2 39.1 72.6 38.4 72.6 37.5C72.6 36.8 72.4 36.3 72 35.9C71.6 35.5 71 35.2 70.3 34.8C69.6 34.5 68.8 34.1 67.8 33.7L63.4 31.9C62.2 31.4 61 30.7 60 29.9C58.9 29.1 58.1 28 57.4 26.8C56.7 25.6 56.4 24.1 56.4 22.5C56.4 20.6 56.9 18.8 58 17.3C59.1 15.7 60.5 14.5 62.4 13.5C64.3 12.6 66.4 12.1 68.9 12.1C71 12.1 73 12.5 74.9 13.2C76.8 13.9 78.6 15 80 16.4L75.6 21.9C74.4 21.1 73.3 20.4 72.1 20C71 19.6 69.8 19.4 68.8 19.4C67.6 19.4 66.6 19.6 65.9 20.1C65.2 20.6 64.8 21.2 64.8 22.1C64.8 22.7 65 23.2 65.4 23.6C65.8 24 66.4 24.4 67.2 24.7C68 25 68.9 25.4 69.9 25.8L74.2 27.5C75.6 28.1 76.8 28.8 77.8 29.6C78.8 30.5 79.6 31.5 80.1 32.7C80.6 33.9 80.9 35.3 80.9 36.9C80.9 38.8 80.4 40.6 79.4 42.2C78.4 43.8 76.9 45.2 74.9 46.2C73.2 47.1 70.8 47.6 68 47.6Z"></path>
<path fill="#500C76" d="M99.4 40.3C100.9 40.3 102.1 39.9 103.2 39C104.3 38.1 105.1 36.9 105.7 35.3C106.3 33.7 106.5 31.8 106.5 29.6C106.5 27.4 106.2 25.5 105.7 24C105.1 22.5 104.3 21.3 103.2 20.5C102.1 19.7 100.9 19.3 99.4 19.3C97.9 19.3 96.7 19.7 95.6 20.5C94.5 21.3 93.7 22.5 93.2 24C92.6 25.5 92.4 27.4 92.4 29.6C92.4 31.8 92.7 33.7 93.2 35.3C93.8 36.9 94.6 38.1 95.6 39C96.7 39.9 98 40.3 99.4 40.3ZM99.4 47.6C96.3 47.6 93.5 46.9 91.2 45.5C88.8 44 87 42 85.7 39.3C84.4 36.6 83.7 33.4 83.7 29.7C83.7 25.9 84.4 22.8 85.7 20.1C87 17.5 88.9 15.5 91.2 14.1C93.6 12.7 96.3 12 99.4 12C102.5 12 105.3 12.7 107.6 14.1C110 15.5 111.8 17.5 113.1 20.1C114.4 22.7 115.1 25.9 115.1 29.7C115.1 33.4 114.4 36.6 113.1 39.3C111.8 42 109.9 44 107.6 45.5C105.3 46.9 102.6 47.6 99.4 47.6Z"></path>
<path fill="#500C76" d="M153.3 40.2H154.3C156.1 40.2 157.7 39.9 159.1 39.3C160.5 38.7 161.6 37.6 162.4 36.1C163.2 34.6 163.6 32.5 163.6 29.7C163.6 27 163.2 24.9 162.4 23.4C161.6 21.9 160.5 20.9 159.1 20.3C157.7 19.7 156.1 19.4 154.3 19.4H153.3V40.2ZM144.9 46.9V12.6H154.9C158.4 12.6 161.4 13.2 164 14.4C166.6 15.6 168.6 17.4 170.1 19.9C171.5 22.4 172.3 25.6 172.3 29.6C172.3 33.6 171.6 36.8 170.1 39.4C168.7 41.9 166.7 43.8 164.1 45.1C161.6 46.3 158.6 46.9 155.3 46.9H144.9Z"></path>
<path fill="#500C76" d="M176.1 46.9V12.6H198V19.7H184.6V25.8H196V32.9H184.6V39.9H198.6V47H176.1V46.9Z"></path>
<path fill="#500C76" d="M211.5 19.3H215.1C217 19.3 218.4 19.6 219.4 20.2C220.4 20.8 220.9 21.9 220.9 23.5C220.9 25.1 220.4 26.3 219.4 27.1C218.4 27.9 217 28.3 215.1 28.3H211.5V19.3ZM231 46.9L223.4 33.3C225 32.5 226.4 31.4 227.4 30C228.6 28.3 229.3 26.1 229.3 23.5C229.3 20.7 228.7 18.5 227.4 16.9C226.2 15.3 224.5 14.2 222.5 13.6C220.5 13 218.2 12.6 215.8 12.6H203V46.9H211.4V35H215.3L221.5 46.9H231Z"></path>
<path fill="#500C76" d="M234.2 46.9V12.6H256.1V19.7H242.7V25.8H254.1V32.9H242.7V39.9H256.7V47H234.2V46.9Z"></path>
<path fill="#500C76" d="M269.1 40.2H270.1C271.9 40.2 273.5 39.9 274.9 39.3C276.3 38.7 277.4 37.6 278.2 36.1C279 34.6 279.4 32.5 279.4 29.7C279.4 27 279 24.9 278.2 23.4C277.4 21.9 276.3 20.9 274.9 20.3C273.5 19.7 271.9 19.4 270.1 19.4H269.1V40.2ZM260.7 46.9V12.6H270.7C274.2 12.6 277.2 13.2 279.8 14.4C282.4 15.6 284.4 17.4 285.9 19.9C287.3 22.4 288.1 25.6 288.1 29.6C288.1 33.6 287.4 36.8 285.9 39.4C284.5 41.9 282.5 43.8 279.9 45.1C277.4 46.3 274.4 46.9 271.1 46.9H260.7Z"></path>
<path fill="#500C76" d="M131.9 39.1L127.3 34.5V12.6H118.9V38L127.7 46.8H140.9V39H131.9V39.1Z"></path>
</g>
</g>
<g clip-path="url(#clip1_8_2)">
<path fill="#500C76" d="M37.6 8.54483C36.5 8.54483 35.4 8.23965 34.5 7.73103L21.4 0L1.80005 11.5966V30.9241L22.4 43.0293L22.9 42.7241C24.7 41.8086 26 39.7741 26 37.7397C26 35.7052 24.8 33.3655 23 32.45L10.6 25.6345V16.581L21.4 10.1724L30.4 15.5638C31.3 16.0724 31.9 16.7845 32.5 17.7C33.5 19.531 35.4 20.65 37.6 20.65C39.6 20.65 41.3001 19.6328 42.4001 18.1069C42.5001 18.0052 42.6001 17.8017 42.7001 17.7C42.7001 17.7 42.7001 17.7 42.7001 17.5983C43.2001 16.6828 43.5 15.6655 43.5 14.5466C43.5 11.2914 40.9 8.54483 37.6 8.54483Z"></path>
<path fill="#500C76" d="M20.6 16.1742C18.8 17.0897 17.5 19.1242 17.5 21.1586C17.5 23.1931 18.7 25.5328 20.5 26.4483L32.9 33.2638V42.3173L22.1 48.7259L13.1 43.3345C12.2 42.8259 11.6 42.1138 11 41.1983C10 39.3673 8.1 38.2483 5.9 38.2483C3.9 38.2483 2.2 39.2655 1.1 40.7914C1 40.8931 0.9 41.0966 0.8 41.1983C0.8 41.1983 0.8 41.1983 0.8 41.3C0.3 42.2155 0 43.2328 0 44.3517C0 47.7086 2.7 50.4552 6 50.4552C7.1 50.4552 8.1 50.7604 9.1 51.269L22.2 58.8983L41.7 47.4035V28.0759L21.1 15.9707L20.6 16.1742Z"></path>
</g>
</g>
<defs>
<clipPath id="clip0_8_2">
<rect fill="white" height="59" width="288"></rect>
</clipPath>
<clipPath id="clip1_8_2">
<rect fill="white" height="59" width="44"></rect>
</clipPath>
</defs>
</svg>
